<svg xmlns="http://www.w3.org/2000/svg" version="1.1" xmlns:xlink="http://www.w3.org/1999/xlink" xmlns:svgjs="http://svgjs.dev/svgjs" width="1000" height="623" viewBox="0 0 1000 623"><g transform="matrix(1,0,0,1,-0.6060606060606233,0.2522267206477409)"><svg viewBox="0 0 396 247" data-background-color="#28353b" preserveAspectRatio="xMidYMid meet" height="623" width="1000" xmlns="http://www.w3.org/2000/svg" xmlns:xlink="http://www.w3.org/1999/xlink"><defs></defs><g id="tight-bounds" transform="matrix(1,0,0,1,0.2400000000000091,-0.09999999999999432)"><svg viewBox="0 0 395.52 247.2" height="247.2" width="395.52"><g><svg></svg></g><g><svg viewBox="0 0 395.52 247.2" height="247.2" width="395.52"><g transform="matrix(1,0,0,1,75.54432,87.52249935053118)"><svg viewBox="0 0 244.43135999999998 72.15500129893763" height="72.15500129893763" width="244.43135999999998"><g><svg viewBox="0 0 244.43135999999998 72.15500129893763" height="72.15500129893763" width="244.43135999999998"><g><svg viewBox="0 0 244.43135999999998 72.15500129893763" height="72.15500129893763" width="244.43135999999998"><g><svg viewBox="0 0 244.43135999999998 72.15500129893763" height="72.15500129893763" width="244.43135999999998"><g><svg viewBox="0 0 244.43135999999998 72.15500129893763" height="72.15500129893763" width="244.43135999999998"><g><svg viewBox="0 0 244.43135999999998 38.91695987593693" height="38.91695987593693" width="244.43135999999998"><g transform="matrix(1,0,0,1,0,0)"><svg width="244.43135999999998" viewBox="2.559999942779541 -36.040000915527344 283.3500061035156 45.12000274658203" height="38.91695987593693" data-palette-color="#ffffff"><path d="M2.56 0L2.56-25.93 13.38-25.93 13.38 0 2.56 0ZM2.56-29.15L2.56-36.04 13.38-36.04 13.38-29.15 2.56-29.15ZM59.05 0L48.51 0 48.51-19.46 33.15-19.46 33.15-22.68 36.4-25.93 52.58-25.93 59.05-19.46 59.05 0ZM35.32-15.09L46.8-15.09 46.8-10.6 41.23-10.6 41.23-6.05 46.8-6.05 46.8-3.2 43.57 0 35.32 0 30.98-4.27 30.98-10.77 35.32-15.09ZM75.09 0L64.27 0 64.27-25.93 75.09-25.93 75.09 0ZM81.19 0L81.19-19.46 76.8-19.46 76.8-22.51 80.19-25.93 88.54-25.93 92.01-22.46 92.01 0 81.19 0ZM98.11 0L98.11-19.46 93.72-19.46 93.72-22.46 97.04-25.93 103.63-25.93 108.9-20.61 108.9 0 98.11 0ZM154.36 0L143.81 0 143.81-19.46 128.45-19.46 128.45-22.68 131.7-25.93 147.89-25.93 154.36-19.46 154.36 0ZM130.63-15.09L142.1-15.09 142.1-10.6 136.54-10.6 136.54-6.05 142.1-6.05 142.1-3.2 138.88 0 130.63 0 126.28-4.27 126.28-10.77 130.63-15.09ZM187.78-6.47L187.78 0 178.21 0 172.15-6.05 172.15-35.82 182.94-35.82 182.94-6.47 187.78-6.47ZM219.44-19.46L219.44-6.47 212.97 0 205.74 0 205.74-6.05 208.43-6.05 208.43-19.46 205.74-19.46 205.74-25.93 212.97-25.93 219.44-19.46ZM201.23-19.46L201.23-6.05 204.03-6.05 204.03 0 196.78 0 190.31-6.47 190.31-19.46 196.78-25.93 204.03-25.93 204.03-19.46 201.23-19.46ZM241.36 3.42L241.36-19.46 236.57-19.46 236.57-25.93 245.68-25.93 252.15-19.46 252.15 2.56 245.68 9.08 231.45 9.08 228.2 5.81 228.2 3.42 241.36 3.42ZM234.87-6.05L239.65-6.05 239.65-3.2 236.43 0 230.54 0 224.07-6.47 224.07-19.46 230.54-25.93 234.87-25.93 234.87-6.05ZM285.91-19.46L285.91-6.47 279.44 0 272.22 0 272.22-6.05 274.9-6.05 274.9-19.46 272.22-19.46 272.22-25.93 279.44-25.93 285.91-19.46ZM267.7-19.46L267.7-6.05 270.51-6.05 270.51 0 263.26 0 256.79-6.47 256.79-19.46 263.26-25.93 270.51-25.93 270.51-19.46 267.7-19.46Z" opacity="1" transform="matrix(1,0,0,1,0,0)" fill="#ffffff" class="undefined-text-0" data-fill-palette-color="primary" id="text-0"></path></svg></g></svg></g><g transform="matrix(1,0,0,1,0,48.10432009560862)"><svg viewBox="0 0 244.43135999999998 24.050681203329024" height="24.050681203329024" width="244.43135999999998"><g transform="matrix(1,0,0,1,0,0)"><svg width="244.43135999999998" viewBox="4.050000190734863 -36 461.4100036621094 45.400001525878906" height="24.050681203329024" data-palette-color="#ffffff"><path d="M4.05-36L8.95-36 8.95-31.65 4.05-31.65 4.05-36ZM4.15-25.55L8.85-25.55 8.85 0 4.15 0 4.15-25.55ZM82.88-26.05Q87.93-26.05 90.41-24.05 92.88-22.05 92.88-18.25L92.88-18.25 92.88-5Q92.88-4.1 93.28-3.68 93.68-3.25 94.28-3.25L94.28-3.25Q95.43-3.25 96.58-3.95L96.58-3.95 96.58-0.5Q94.88 0.5 92.73 0.5L92.73 0.5Q90.58 0.5 89.53-0.73 88.48-1.95 88.38-4.1L88.38-4.1Q85.28 0.5 79.43 0.5L79.43 0.5Q75.23 0.5 73.16-1.33 71.08-3.15 71.08-7.1L71.08-7.1Q71.08-10.2 72.68-11.98 74.28-13.75 77.98-14.55 81.68-15.35 88.18-15.35L88.18-15.35 88.18-17.7Q88.18-20.25 86.68-21.28 85.18-22.3 82.33-22.3L82.33-22.3Q79.63-22.3 78.13-21.25 76.63-20.2 76.63-18.3L76.63-18.3 76.63-17.7 72.03-17.7Q71.93-18.4 71.93-19.35L71.93-19.35Q71.93-21.1 73.33-22.65 74.73-24.2 77.13-25.13 79.53-26.05 82.43-26.05L82.43-26.05 82.88-26.05ZM88.18-11.7Q82.93-11.7 80.26-11.18 77.58-10.65 76.68-9.6 75.78-8.55 75.78-6.7L75.78-6.7Q75.78-3.25 81.03-3.25L81.03-3.25Q82.88-3.25 84.53-4.17 86.18-5.1 87.18-6.8 88.18-8.5 88.18-10.7L88.18-10.7 88.18-11.7ZM150.77-26.05Q154.72-26.05 156.92-23.75 159.12-21.45 159.12-17.2L159.12-17.2 159.12 0 154.42 0 154.42-16.35Q154.42-22.3 149.82-22.3L149.82-22.3Q148.22-22.3 146.85-21.35 145.47-20.4 144.65-18.78 143.82-17.15 143.82-15.2L143.82-15.2 143.82 0 139.12 0 139.12-16.35Q139.12-22.3 134.52-22.3L134.52-22.3Q132.92-22.3 131.55-21.35 130.17-20.4 129.35-18.78 128.52-17.15 128.52-15.2L128.52-15.2 128.52 0 123.82 0 123.82-25.55 127.22-25.55 127.87-21.8Q130.77-26.05 135.92-26.05L135.92-26.05Q140.97-26.05 142.92-21.8L142.92-21.8Q144.62-24.2 146.57-25.13 148.52-26.05 150.77-26.05L150.77-26.05ZM232.9-26.05Q237.95-26.05 240.43-24.05 242.9-22.05 242.9-18.25L242.9-18.25 242.9-5Q242.9-4.1 243.3-3.68 243.7-3.25 244.3-3.25L244.3-3.25Q245.45-3.25 246.6-3.95L246.6-3.95 246.6-0.5Q244.9 0.5 242.75 0.5L242.75 0.5Q240.6 0.5 239.55-0.73 238.5-1.95 238.4-4.1L238.4-4.1Q235.3 0.5 229.45 0.5L229.45 0.5Q225.25 0.5 223.18-1.33 221.1-3.15 221.1-7.1L221.1-7.1Q221.1-10.2 222.7-11.98 224.3-13.75 228-14.55 231.7-15.35 238.2-15.35L238.2-15.35 238.2-17.7Q238.2-20.25 236.7-21.28 235.2-22.3 232.35-22.3L232.35-22.3Q229.65-22.3 228.15-21.25 226.65-20.2 226.65-18.3L226.65-18.3 226.65-17.7 222.05-17.7Q221.95-18.4 221.95-19.35L221.95-19.35Q221.95-21.1 223.35-22.65 224.75-24.2 227.15-25.13 229.55-26.05 232.45-26.05L232.45-26.05 232.9-26.05ZM238.2-11.7Q232.95-11.7 230.28-11.18 227.6-10.65 226.7-9.6 225.8-8.55 225.8-6.7L225.8-6.7Q225.8-3.25 231.05-3.25L231.05-3.25Q232.9-3.25 234.55-4.17 236.2-5.1 237.2-6.8 238.2-8.5 238.2-10.7L238.2-10.7 238.2-11.7ZM307.99-36L312.69-36 312.69 0 307.99 0 307.99-36ZM353.13-26.05Q358.48-26.05 361.68-22.75 364.88-19.45 364.88-13.7L364.88-13.7 364.88-11.85Q364.88-6.1 361.73-2.8 358.58 0.5 353.13 0.5L353.13 0.5Q347.68 0.5 344.53-2.8 341.38-6.1 341.38-11.85L341.38-11.85 341.38-13.7Q341.38-19.45 344.58-22.75 347.78-26.05 353.13-26.05L353.13-26.05ZM353.13-22.3Q349.78-22.3 347.93-20 346.08-17.7 346.08-13.25L346.08-13.25 346.08-12.3Q346.08-7.95 347.9-5.6 349.73-3.25 353.13-3.25L353.13-3.25Q356.43-3.25 358.3-5.58 360.18-7.9 360.18-12.3L360.18-12.3 360.18-13.25Q360.18-17.6 358.35-19.95 356.53-22.3 353.13-22.3L353.13-22.3ZM416.77-30.15Q416.77-27.6 415.42-25.88 414.07-24.15 411.67-23.65L411.67-23.65 411.57-23.5Q414.07-21.3 414.07-18L414.07-18Q414.07-14.4 411.37-12.2 408.67-10 404.02-10L404.02-10 400.62-10Q399.12-10 398.12-9.22 397.12-8.45 397.12-7.25L397.12-7.25Q397.12-6.05 398.07-5.35 399.02-4.65 400.62-4.65L400.62-4.65 410.27-4.65Q413.22-4.65 414.99-2.8 416.77-0.95 416.77 1.9L416.77 1.9Q416.77 5.3 414.19 7.35 411.62 9.4 407.27 9.4L407.27 9.4 397.22 9.4Q395.52 9.4 394.09 8.5 392.67 7.6 391.84 6.23 391.02 4.85 391.02 3.4L391.02 3.4Q391.02 1.3 392.04-0.25 393.07-1.8 394.77-2.55L394.77-2.55Q392.47-3.95 392.47-6.7L392.47-6.7Q392.47-8.5 393.52-9.8 394.57-11.1 396.47-11.75L396.47-11.75Q393.12-13.6 393.12-18L393.12-18Q393.12-21.7 395.84-23.88 398.57-26.05 403.42-26.05L403.42-26.05 403.62-26.05Q406.42-26.05 408.72-25.2L408.72-25.2Q412.27-26.95 412.77-30.15L412.77-30.15 416.77-30.15ZM403.57-22.3Q400.92-22.3 399.34-21.28 397.77-20.25 397.77-18L397.77-18Q397.77-15.75 399.34-14.75 400.92-13.75 403.57-13.75L403.57-13.75Q406.22-13.75 407.82-14.75 409.42-15.75 409.42-18L409.42-18Q409.42-20.25 407.82-21.28 406.22-22.3 403.57-22.3L403.57-22.3ZM408.87-0.15L398.57-0.15Q397.37-0.15 396.52 0.7 395.67 1.55 395.67 2.75L395.67 2.75Q395.67 3.95 396.52 4.8 397.37 5.65 398.57 5.65L398.57 5.65 408.22 5.65Q409.82 5.65 410.97 4.73 412.12 3.8 412.12 2.6L412.12 2.6Q412.12 1.35 411.27 0.6 410.42-0.15 408.87-0.15L408.87-0.15ZM453.71-26.05Q459.06-26.05 462.26-22.75 465.46-19.45 465.46-13.7L465.46-13.7 465.46-11.85Q465.46-6.1 462.31-2.8 459.16 0.5 453.71 0.5L453.71 0.5Q448.26 0.5 445.11-2.8 441.96-6.1 441.96-11.85L441.96-11.85 441.96-13.7Q441.96-19.45 445.16-22.75 448.36-26.05 453.71-26.05L453.71-26.05ZM453.71-22.3Q450.36-22.3 448.51-20 446.66-17.7 446.66-13.25L446.66-13.25 446.66-12.3Q446.66-7.95 448.48-5.6 450.31-3.25 453.71-3.25L453.71-3.25Q457.01-3.25 458.88-5.58 460.76-7.9 460.76-12.3L460.76-12.3 460.76-13.25Q460.76-17.6 458.93-19.95 457.11-22.3 453.71-22.3L453.71-22.3Z" opacity="1" transform="matrix(1,0,0,1,0,0)" fill="#ffffff" class="undefined-text-1" data-fill-palette-color="secondary" id="text-1"></path></svg></g></svg></g></svg></g></svg></g></svg></g></svg></g></svg></g><g><path d="M244.431 168.865A122.216 122.216 0 1 1 244.431 78.335L240.922 78.335A118.706 118.706 0 1 0 240.922 168.865L244.431 168.865" fill="#ffffff" stroke="transparent" data-fill-palette-color="tertiary"></path></g></svg></g></svg><rect width="395.52" height="247.2" fill="none" stroke="none" visibility="hidden"></rect></g></svg></g></svg>